<svg id="visual" viewBox="0 0 900 600" width="900" height="600" xmlns="http://www.w3.org/2000/svg" xmlns:xlink="http://www.w3.org/1999/xlink" version="1.1"><rect x="0" y="0" width="900" height="600" fill="#001220"></rect><defs><linearGradient id="grad1_0" x1="33.3%" y1="0%" x2="100%" y2="100%"><stop offset="20%" stop-color="#001220" stop-opacity="1"></stop><stop offset="80%" stop-color="#001220" stop-opacity="1"></stop></linearGradient></defs><defs><linearGradient id="grad2_0" x1="0%" y1="0%" x2="66.7%" y2="100%"><stop offset="20%" stop-color="#001220" stop-opacity="1"></stop><stop offset="80%" stop-color="#001220" stop-opacity="1"></stop></linearGradient></defs><g transform="translate(900, 0)"><path d="M0 270.4C-35.4 266.8 -70.9 263.2 -103.5 249.8C-136.1 236.5 -165.8 213.4 -186 186C-206.1 158.5 -216.6 126.6 -229.1 94.9C-241.6 63.2 -256 31.6 -270.4 0L0 0Z" fill="#fd435a"></path></g><g transform="translate(0, 600)"><path d="M0 -270.4C32.9 -259.7 65.9 -248.9 98 -236.5C130.1 -224.1 161.4 -210.1 188.1 -188.1C214.8 -166.1 236.9 -136.2 249.8 -103.5C262.8 -70.8 266.6 -35.4 270.4 0L0 0Z" fill="#fd435a"></path></g></svg>